<svg xmlns="http://www.w3.org/2000/svg" viewBox="0 0 512 512" width="512" height="512">
  <defs>
    <linearGradient id="bgGrad" x1="0%" y1="0%" x2="100%" y2="100%">
      <stop offset="0%" style="stop-color:#b76e79;stop-opacity:1" />
      <stop offset="100%" style="stop-color:#8a4f5a;stop-opacity:1" />
    </linearGradient>
    <linearGradient id="rowGrad" x1="0%" y1="0%" x2="100%" y2="0%">
      <stop offset="0%" style="stop-color:white;stop-opacity:0.05" />
      <stop offset="50%" style="stop-color:white;stop-opacity:0.15" />
      <stop offset="100%" style="stop-color:white;stop-opacity:0.05" />
    </linearGradient>
  </defs>

  <rect width="512" height="512" rx="115" fill="url(#bgGrad)"/>

  <!-- Parameter table background (subtle, like track list) -->
  <g opacity="0.75">
    <rect x="60" y="130" width="392" height="55" rx="4" fill="url(#rowGrad)"/>
    <rect x="60" y="195" width="392" height="55" rx="4" fill="url(#rowGrad)"/>
    <rect x="60" y="260" width="392" height="55" rx="4" fill="url(#rowGrad)"/>
    <rect x="60" y="325" width="392" height="55" rx="4" fill="url(#rowGrad)"/>

    <!-- Parameter indicators (left) -->
    <circle cx="85" cy="157" r="6" fill="white" opacity="0.6"/>
    <circle cx="85" cy="222" r="6" fill="white" opacity="0.6"/>
    <circle cx="85" cy="287" r="6" fill="white" opacity="0.6"/>
    <circle cx="85" cy="352" r="6" fill="white" opacity="0.6"/>

    <!-- Sliders in middle column (horizontal bars) -->
    <rect x="240" y="152" width="100" height="10" rx="5" fill="white" opacity="0.4"/>
    <rect x="240" y="217" width="100" height="10" rx="5" fill="white" opacity="0.4"/>
    <rect x="240" y="282" width="100" height="10" rx="5" fill="white" opacity="0.4"/>
    <rect x="240" y="347" width="100" height="10" rx="5" fill="white" opacity="0.4"/>

    <!-- Knob controls in third column (re-centered) -->
    <!-- Row 1 knob -->
    <circle cx="416" cy="157" r="12" fill="white" opacity="0.3"/>
    <circle cx="416" cy="151" r="5" fill="white" opacity="0.6"/>

    <!-- Row 2 knob -->
    <circle cx="416" cy="222" r="12" fill="white" opacity="0.3"/>
    <circle cx="416" cy="216" r="5" fill="white" opacity="0.6"/>

    <!-- Row 3 knob -->
    <circle cx="416" cy="287" r="12" fill="white" opacity="0.3"/>
    <circle cx="416" cy="281" r="5" fill="white" opacity="0.6"/>

    <!-- Row 4 knob -->
    <circle cx="416" cy="352" r="12" fill="white" opacity="0.3"/>
    <circle cx="416" cy="346" r="5" fill="white" opacity="0.6"/>

    <!-- Column dividers -->
    <line x1="220" y1="125" x2="220" y2="385" stroke="white" stroke-width="1.5" opacity="0.25"/>
    <line x1="380" y1="125" x2="380" y2="385" stroke="white" stroke-width="1.5" opacity="0.25"/>
  </g>

  <!-- Abstract keyboard (foreground) - only 5 keys, bold and simple -->
  <g transform="translate(256, 256)">
    <!-- 3 white keys as vertical bars with thick stroke - expanded left and up, equal width -->
    <rect x="-135" y="-95" width="60" height="190" rx="8"
          fill="none" stroke="white" stroke-width="35"
          stroke-linejoin="round" opacity="0.95"/>
    <rect x="-40" y="-95" width="60" height="190" rx="8"
          fill="none" stroke="white" stroke-width="35"
          stroke-linejoin="round" opacity="0.95"/>
    <rect x="50" y="-95" width="60" height="190" rx="8"
          fill="none" stroke="white" stroke-width="35"
          stroke-linejoin="round" opacity="0.95"/>

    <!-- 2 black keys as filled rounded rects, smaller and offset - expanded left and up, equal width -->
    <rect x="-90" y="-95" width="38" height="125" rx="6"
          fill="white" opacity="0.95"/>
    <rect x="20" y="-95" width="38" height="125" rx="6"
          fill="white" opacity="0.95"/>

    <!-- Inner detail on black keys -->
    <rect x="-70" y="-85" width="24" height="110" rx="5"
          fill="#b76e79" opacity="0.8"/>
    <rect x="25" y="-85" width="24" height="110" rx="5"
          fill="#b76e79" opacity="0.8"/>
  </g>
</svg>
